<svg version="1" xmlns="http://www.w3.org/2000/svg" width="346.667" height="346.667" viewBox="0 0 260.000000 260.000000"><path d="M0 130v130h260V0H0v130zm67.7-40.5c9.5 4 17.6 12.8 20.9 22.8 1.7 5.4 3.4 8.2 3.4 5.6 0-.7 1.3-4.2 3-7.7 7.8-16.5 26-25.4 45.9-22.4 14.5 2.3 24.7 9.4 31.6 22.2 3 5.7 3.5 6.1 3.5 3.6 0-9 6.3-17.7 15.8-21.9 16.4-7.4 42.9-5.2 54.6 4.5 4 3.3 8.6 11.6 8.6 15.5 0 2.3-.2 2.3-13.5 2.3-13.1 0-13.6-.1-14.4-2.3-1.8-4.7-4.8-6.2-12.3-6.2-6.1 0-7.2.3-8.9 2.4-5.3 6.5-.8 10.3 19.6 16.5 19.8 6 25.1 8.8 28.9 15 5.3 8.5 4.8 20.8-1.2 29.8-8.8 13.5-39 18.8-60.5 10.8-6.6-2.5-14-8.8-16.8-14.2l-2-4-2.8 4.4c-8.8 13.7-26.9 20.9-45.3 17.9-17.1-2.7-27.9-12.1-34.3-29.6-.6-1.7-.9-1.4-1.9 2-3.4 11-12.1 21.7-20.9 25.6-4 1.8-7 2.3-13.2 2.3-9.9 0-15.5-2.3-22-8.9l-4.5-4.7V219H1V90h28v5.5c0 3 .2 5.5.5 5.5s1.9-1.6 3.6-3.5c4.4-4.9 8.5-7.7 13.8-9.2 5.6-1.6 15.5-1 20.8 1.2z"/><path d="M126.4 108.9c-4 2.4-7.1 7.5-8 12.9l-.7 4.2h33.6l-.7-4.2c-1.5-9.3-7.5-14.8-16-14.8-3.2 0-6.2.7-8.2 1.9zM38 112.9c-5.7 3-8.4 9.6-8.8 21.3-.4 11.3 1.3 18 5.6 22 4 3.7 6.5 4.8 11.5 4.8 5.9 0 10.5-3.2 13.7-9.5 2.2-4.4 2.5-6.3 2.5-15.5s-.3-11.1-2.5-15.5c-1.4-2.8-4-6-5.9-7.2-4.3-2.9-11.3-3-16.1-.4zM178 135.4v7.6h-59.6l.6 4.7c1.3 10.1 6.6 15.3 15.5 15.3 6.2 0 11.4-2.6 13.5-6.8l1.5-3.2h25.8c22.5 0 25.7.2 25.7 1.5 0 5.9 6.6 10.5 15 10.5 6.5 0 11.5-2.3 13-6 2.2-5.4-2.3-9.2-15.1-12.5-8.7-2.3-22.8-7.8-27.7-10.9-2.2-1.3-4.9-3.7-6.1-5.2l-2.1-2.7v7.7z"/></svg>