<?xml version="1.0" standalone="no"?>
<!DOCTYPE svg PUBLIC "-//W3C//DTD SVG 20010904//EN"
 "http://www.w3.org/TR/2001/REC-SVG-20010904/DTD/svg10.dtd">
<svg version="1.0" xmlns="http://www.w3.org/2000/svg"
 width="700.000000pt" height="700.000000pt" viewBox="0 0 700.000000 700.000000"
 preserveAspectRatio="xMidYMid meet">
<metadata>
Created by potrace 1.11, written by Peter Selinger 2001-2013
</metadata>
<g transform="translate(0.000000,700.000000) scale(0.100000,-0.100000)"
fill="#000000" stroke="none">
<path d="M5580 4659 c-177 -19 -360 -75 -478 -147 -232 -140 -341 -318 -367
-596 l-7 -70 -27 71 c-125 321 -354 549 -656 654 -154 53 -232 64 -450 64
-209 0 -272 -8 -425 -57 -159 -50 -344 -174 -458 -307 -108 -125 -174 -243
-232 -414 l-36 -107 -27 97 c-50 178 -149 356 -270 488 -192 211 -445 307
-748 283 -223 -17 -416 -122 -556 -303 l-58 -75 -3 160 -2 160 -390 0 -390 0
0 -1725 0 -1725 390 0 390 0 0 641 0 641 43 -58 c100 -136 258 -241 437 -290
94 -26 357 -26 455 0 95 25 217 84 295 144 191 145 351 399 421 672 l12 45 14
-50 c121 -422 410 -705 818 -800 245 -56 572 -39 797 41 254 92 454 258 580
483 l36 64 21 -48 c12 -26 21 -51 21 -55 0 -20 107 -154 169 -212 145 -134
328 -217 587 -264 142 -26 546 -26 689 0 208 38 357 95 491 187 139 96 232
218 287 376 27 78 31 104 35 228 6 208 -31 334 -134 455 -127 149 -246 202
-834 375 -328 97 -411 133 -478 209 -26 30 -32 45 -32 82 0 79 41 143 116 179
53 25 169 37 254 25 139 -19 217 -76 256 -187 l19 -53 378 0 379 0 -7 53 c-4
28 -18 86 -31 127 -81 260 -293 428 -637 504 -190 42 -458 57 -657 35z m-1815
-586 c167 -53 265 -195 291 -425 l6 -58 -442 0 -443 0 7 58 c16 136 78 272
159 346 103 95 270 126 422 79z m-2453 -104 c164 -35 281 -163 333 -363 23
-93 38 -271 30 -381 -22 -337 -153 -531 -382 -567 -207 -32 -401 89 -474 297
-65 186 -67 514 -3 710 78 238 265 353 496 304z m3599 -544 c145 -131 468
-274 844 -375 239 -64 362 -117 420 -182 30 -33 35 -45 35 -88 0 -96 -61 -171
-170 -209 -104 -36 -294 -32 -403 9 -102 38 -176 130 -195 240 l-8 45 -706 3
-707 2 -26 -59 c-71 -157 -249 -236 -458 -201 -145 23 -244 108 -296 253 -27
73 -41 148 -41 217 l0 60 800 0 799 0 7 36 c6 35 0 204 -13 344 l-6 65 42 -61
c23 -34 60 -78 82 -99z"/>
</g>
</svg>
