<?xml version="1.0" encoding="utf-8"?>
<!-- Generator: Adobe Illustrator 16.0.0, SVG Export Plug-In . SVG Version: 6.00 Build 0)  -->
<!DOCTYPE svg PUBLIC "-//W3C//DTD SVG 1.1//EN" "http://www.w3.org/Graphics/SVG/1.1/DTD/svg11.dtd">
<svg version="1.1" id="Layer_1" xmlns="http://www.w3.org/2000/svg" xmlns:xlink="http://www.w3.org/1999/xlink" x="0px" y="0px"
	 width="128px" height="128px" viewBox="0 0 128 128" enable-background="new 0 0 128 128" xml:space="preserve">
<rect fill="#FF6762" width="128" height="128"/>
<g>
	<path fill="#16191C" d="M0.02197,107.76367V44.62744h14.22656v6.01074c1.59863-2.45947,3.44336-4.27637,5.53516-5.45117
		c2.09082-1.17432,4.53564-1.76172,7.33301-1.76172c5.43457,0,9.85059,2.17627,13.24805,6.52881
		c3.39648,4.35303,5.09473,10.03955,5.09473,17.05957c0,7.10156-1.70508,12.89844-5.11523,17.39062
		c-3.41016,4.49023-7.7666,6.73633-13.06787,6.73633c-2.85107,0-5.38867-0.60156-7.61279-1.80469
		c-2.22461-1.20117-4.05615-2.94922-5.49463-5.24414v23.67188H0.02197z M30.71338,67.71777
		c0-4.0625-0.72656-7.15771-2.17822-9.28613c-1.45215-2.12744-3.53662-3.19189-6.25391-3.19189
		c-2.71777,0-4.77588,1.05078-6.17432,3.15039c-1.39893,2.10107-2.09814,5.20996-2.09814,9.32764
		c0,3.75879,0.74561,6.66113,2.23779,8.70605c1.4917,2.04492,3.58301,3.06641,6.27441,3.06641
		c2.55762,0,4.56201-1.04883,6.01416-3.15039C29.98682,74.24023,30.71338,71.36523,30.71338,67.71777z"/>
	<path fill="#16191C" d="M73.51953,75.51172H87.1875c-1.2793,4.94727-3.79102,8.77539-7.5332,11.48242
		c-3.74414,2.70898-8.38672,4.0625-13.92773,4.0625c-6.73975,0-12.06787-2.12109-15.98389-6.36328
		c-3.91699-4.24219-5.875-10.02539-5.875-17.34863c0-7.46191,1.97168-13.36914,5.91504-17.72217
		c3.94238-4.35254,9.25684-6.5293,15.94385-6.5293c6.90039,0,12.32227,2.21143,16.26562,6.63281
		c3.94336,4.42236,5.91406,10.52979,5.91406,18.32275c0,0.71973-0.00586,1.26562-0.01953,1.63867s-0.0332,0.69727-0.06055,0.97363
		H58.45459c0,3.17871,0.65918,5.60254,1.97754,7.27441c1.31934,1.67383,3.25684,2.50977,5.81396,2.50977
		c1.89258,0,3.45117-0.41602,4.67578-1.24414C72.14844,78.37109,73.01367,77.14258,73.51953,75.51172z M58.0542,62.37012
		l16.18604-0.0415c-0.05469-2.90186-0.79297-5.16748-2.21875-6.79883c-1.42578-1.63037-3.37695-2.4458-5.85547-2.4458
		c-2.34326,0-4.21533,0.80225-5.61377,2.40479C59.15381,57.0918,58.3208,59.38525,58.0542,62.37012z"/>
	<path fill="#16191C" d="M84.88281,75.52539H99.3457c0.16211,1.99023,0.88672,3.48242,2.17383,4.47656
		c1.28516,0.99609,3.14844,1.49219,5.58594,1.49219c2.03125,0,3.62891-0.40039,4.79297-1.20117s1.74805-1.87891,1.74805-3.23438
		c0-1.74023-2.27539-3.20508-6.82617-4.39355c-2.4375-0.63574-4.40039-1.20215-5.89062-1.7002
		c-5.52539-1.85059-9.30273-3.77832-11.33398-5.78223c-2.03125-2.00342-3.04688-4.63623-3.04688-7.89746
		c0-4.56006,1.70508-8.146,5.11914-10.75732c3.41211-2.61182,8.11133-3.91748,14.0957-3.91748
		c6.39258,0,11.32227,1.11279,14.78906,3.33691c3.4668,2.2251,5.41602,5.54834,5.84961,9.97021h-13.89453
		c-0.29688-1.52002-0.97461-2.64648-2.03125-3.37891c-1.05664-0.73193-2.51758-1.09863-4.38672-1.09863
		c-1.73438,0-3.06836,0.33887-4.00195,1.01562c-0.93359,0.67773-1.40234,1.6377-1.40234,2.88135
		c0,1.76904,2.35742,3.30273,7.07031,4.60156c1.13672,0.3042,2.01758,0.55322,2.64062,0.74609
		c4.38672,1.29932,7.43359,2.27344,9.14062,2.92236c1.70508,0.6499,2.9375,1.26465,3.69727,1.84424
		c1.59766,1.18945,2.77539,2.57031,3.5332,4.14648c0.75781,1.5752,1.13867,3.41211,1.13867,5.51367
		c0,4.89062-1.86914,8.71875-5.60742,11.48242c-3.73633,2.76367-8.95117,4.14648-15.64062,4.14648
		c-6.55469,0-11.72656-1.32812-15.51953-3.98047C87.34766,84.10742,85.26172,80.36133,84.88281,75.52539z"/>
</g>
<g>
</g>
<g>
</g>
<g>
</g>
<g>
</g>
<g>
</g>
<g>
</g>
<g>
</g>
<g>
</g>
<g>
</g>
<g>
</g>
<g>
</g>
<g>
</g>
<g>
</g>
<g>
</g>
<g>
</g>
</svg>
